<svg id="svg" version="1.1" xmlns="http://www.w3.org/2000/svg" xmlns:xlink="http://www.w3.org/1999/xlink" width="400" height="401.06241699867195" viewBox="0, 0, 400,401.06241699867195"><g id="svgg"><path id="path0" d="M269.600 155.857 C 269.216 155.961,266.933 161.750,263.268 171.910 C 260.116 180.650,255.346 193.867,252.668 201.282 L 247.800 214.764 247.142 213.482 C 246.781 212.777,243.396 204.820,239.622 195.800 C 235.847 186.780,232.148 177.960,231.401 176.200 C 228.732 169.907,226.487 164.542,224.999 160.903 C 223.016 156.049,223.924 156.389,213.819 156.717 L 205.080 157.000 205.145 160.600 C 205.325 170.510,206.059 197.406,206.399 206.600 C 206.612 212.320,206.887 222.310,207.012 228.800 C 207.138 235.290,207.329 241.185,207.438 241.900 L 207.636 243.200 213.418 243.200 C 218.424 243.200,219.200 243.115,219.200 242.567 C 219.200 239.312,217.907 192.673,217.599 184.829 C 216.911 167.284,216.960 166.787,218.922 171.400 C 222.285 179.308,230.580 199.044,233.800 206.800 C 235.656 211.273,237.821 216.380,238.800 218.600 C 240.427 222.286,241.600 225.206,241.600 225.567 C 241.600 225.859,243.646 226.000,247.900 225.999 L 254.200 225.998 255.930 221.099 C 256.882 218.405,257.902 215.570,258.198 214.800 C 258.494 214.030,261.013 207.010,263.795 199.200 C 266.578 191.390,269.187 184.100,269.593 183.000 C 269.999 181.900,271.472 177.808,272.866 173.907 C 274.260 170.007,275.437 166.947,275.481 167.107 C 275.592 167.506,276.694 203.308,277.207 223.200 C 277.437 232.110,277.718 239.985,277.831 240.700 L 278.036 242.000 283.818 242.000 L 289.600 242.000 289.597 238.700 C 289.596 236.885,289.417 230.630,289.201 224.800 C 288.984 218.970,288.536 204.210,288.206 192.000 C 287.875 179.790,287.486 166.605,287.341 162.700 L 287.078 155.600 278.639 155.646 C 273.998 155.672,269.930 155.766,269.600 155.857 M121.200 157.995 C 115.150 158.126,110.158 158.270,110.107 158.316 C 110.056 158.362,110.104 161.145,110.215 164.500 C 110.805 182.383,111.264 198.231,111.822 220.000 C 112.163 233.310,112.599 244.357,112.790 244.548 C 113.310 245.070,144.646 244.104,149.600 243.414 C 178.602 239.371,191.531 220.327,185.795 190.099 C 180.959 164.612,165.715 157.036,121.200 157.995 M148.100 168.228 C 164.815 171.068,172.278 179.714,173.708 197.897 C 175.765 224.043,165.199 234.008,134.700 234.685 L 124.400 234.913 124.400 231.973 C 124.400 230.356,124.211 223.895,123.980 217.616 C 123.313 199.495,122.495 168.229,122.679 167.900 C 123.021 167.290,144.185 167.564,148.100 168.228 " stroke="none" fill="#060606" fill-rule="evenodd"></path><path id="path1" d="M204.795 3.100 C 204.114 3.705,201.420 6.270,198.809 8.800 C 196.199 11.330,193.373 13.972,192.531 14.671 C 191.689 15.370,189.110 17.769,186.800 20.001 C 184.490 22.234,180.469 26.072,177.864 28.530 C 175.259 30.989,170.870 35.205,168.110 37.900 C 165.350 40.595,162.981 42.801,162.846 42.802 C 162.711 42.803,160.440 44.880,157.800 47.418 C 155.160 49.955,150.685 54.229,147.856 56.916 C 145.026 59.602,140.824 63.644,138.516 65.898 C 136.208 68.152,133.753 70.467,133.060 71.044 C 132.367 71.620,129.730 74.067,127.200 76.481 C 124.670 78.895,120.196 83.149,117.258 85.935 C 114.320 88.721,109.730 93.087,107.058 95.637 C 101.332 101.103,94.665 107.447,85.658 116.000 C 82.067 119.410,75.770 125.455,71.665 129.433 C 67.559 133.412,63.183 137.579,61.941 138.693 C 60.698 139.807,58.234 142.132,56.464 143.859 C 53.194 147.052,45.238 154.648,41.146 158.486 C 38.623 160.851,34.924 164.356,27.744 171.183 C 25.073 173.722,20.234 178.320,16.991 181.400 C 1.211 196.386,2.236 194.557,6.900 199.416 C 8.715 201.307,11.550 204.258,13.200 205.974 C 14.850 207.690,17.083 210.063,18.163 211.247 C 19.243 212.431,22.179 215.560,24.688 218.200 C 27.196 220.840,31.263 225.123,33.725 227.718 C 36.186 230.313,40.299 234.633,42.865 237.318 C 50.328 245.128,52.317 247.227,55.068 250.200 C 60.634 256.213,72.941 269.134,80.400 276.795 C 82.490 278.941,85.190 281.838,86.400 283.232 C 87.610 284.626,90.040 287.248,91.800 289.058 C 93.560 290.868,97.340 294.817,100.200 297.833 C 103.060 300.850,107.290 305.252,109.600 307.617 C 111.910 309.982,114.188 312.404,114.662 312.998 C 115.136 313.593,117.476 316.113,119.862 318.599 C 122.248 321.085,126.540 325.594,129.400 328.619 C 132.260 331.645,136.523 336.118,138.874 338.560 C 141.225 341.002,143.385 343.287,143.674 343.639 C 143.963 343.990,146.180 346.332,148.600 348.845 C 151.020 351.357,155.430 356.001,158.400 359.165 C 161.370 362.329,165.625 366.826,167.856 369.159 C 176.605 378.307,185.646 387.808,189.968 392.395 C 193.299 395.930,193.026 395.974,198.062 391.100 C 200.393 388.845,204.595 384.840,207.401 382.200 C 210.206 379.560,214.654 375.295,217.285 372.722 C 219.916 370.149,222.224 367.989,222.414 367.922 C 222.603 367.855,225.077 365.550,227.912 362.800 C 230.746 360.050,235.364 355.640,238.174 353.000 C 245.183 346.415,259.376 332.835,268.066 324.400 C 270.446 322.090,274.579 318.130,277.251 315.600 C 279.923 313.070,284.359 308.795,287.109 306.100 C 289.858 303.405,292.223 301.200,292.363 301.200 C 292.503 301.200,294.629 299.265,297.088 296.900 C 299.548 294.535,304.033 290.260,307.057 287.400 C 310.081 284.540,314.386 280.400,316.625 278.200 C 318.863 276.000,321.754 273.280,323.047 272.156 C 324.341 271.031,326.955 268.601,328.856 266.756 C 330.757 264.910,334.794 261.060,337.828 258.200 C 340.861 255.340,345.515 250.909,348.171 248.352 C 350.827 245.796,357.590 239.323,363.200 233.969 C 368.810 228.614,374.973 222.668,376.895 220.756 C 378.817 218.844,380.977 216.792,381.695 216.195 C 382.413 215.599,384.999 213.196,387.443 210.856 C 389.887 208.515,392.902 205.670,394.143 204.533 C 397.472 201.484,397.688 201.991,389.400 193.399 C 387.860 191.802,384.440 188.206,381.800 185.408 C 379.160 182.609,374.913 178.133,372.363 175.460 C 367.279 170.132,361.009 163.525,353.000 155.054 C 350.140 152.029,345.910 147.584,343.600 145.175 C 341.290 142.766,339.139 140.482,338.820 140.098 C 338.500 139.714,336.171 137.240,333.643 134.600 C 325.863 126.475,320.002 120.305,315.200 115.185 C 312.670 112.487,308.519 108.102,305.977 105.440 C 303.434 102.778,299.924 99.095,298.177 97.255 C 296.429 95.416,294.100 92.967,293.000 91.813 C 291.900 90.659,288.750 87.336,286.000 84.427 C 283.250 81.518,279.200 77.281,277.000 75.011 C 274.800 72.740,272.370 70.159,271.600 69.274 C 270.830 68.390,268.310 65.708,266.000 63.315 C 263.690 60.922,259.910 56.979,257.600 54.553 C 252.705 49.412,242.064 38.253,238.600 34.629 C 237.280 33.249,233.500 29.284,230.200 25.818 C 226.900 22.353,222.310 17.575,220.000 15.201 C 217.690 12.827,213.910 8.886,211.601 6.442 C 207.061 1.640,206.660 1.443,204.795 3.100 M287.341 162.700 C 287.486 166.605,287.875 179.790,288.206 192.000 C 288.536 204.210,288.984 218.970,289.201 224.800 C 289.417 230.630,289.596 236.885,289.597 238.700 L 289.600 242.000 283.818 242.000 L 278.036 242.000 277.831 240.700 C 277.718 239.985,277.437 232.110,277.207 223.200 C 276.694 203.308,275.592 167.506,275.481 167.107 C 275.437 166.947,274.260 170.007,272.866 173.907 C 271.472 177.808,269.999 181.900,269.593 183.000 C 269.187 184.100,266.578 191.390,263.795 199.200 C 261.013 207.010,258.494 214.030,258.198 214.800 C 257.902 215.570,256.882 218.405,255.930 221.099 L 254.200 225.998 247.900 225.999 C 243.646 226.000,241.600 225.859,241.600 225.567 C 241.600 225.206,240.427 222.286,238.800 218.600 C 237.821 216.380,235.656 211.273,233.800 206.800 C 230.580 199.044,222.285 179.308,218.922 171.400 C 216.960 166.787,216.911 167.284,217.599 184.829 C 217.907 192.673,219.200 239.312,219.200 242.567 C 219.200 243.115,218.424 243.200,213.418 243.200 L 207.636 243.200 207.438 241.900 C 207.329 241.185,207.138 235.290,207.012 228.800 C 206.887 222.310,206.612 212.320,206.399 206.600 C 206.059 197.406,205.325 170.510,205.145 160.600 L 205.080 157.000 213.819 156.717 C 223.924 156.389,223.016 156.049,224.999 160.903 C 226.487 164.542,228.732 169.907,231.401 176.200 C 232.148 177.960,235.847 186.780,239.622 195.800 C 243.396 204.820,246.781 212.777,247.142 213.482 L 247.800 214.764 252.668 201.282 C 255.346 193.867,260.116 180.650,263.268 171.910 C 266.933 161.750,269.216 155.961,269.600 155.857 C 269.930 155.766,273.998 155.672,278.639 155.646 L 287.078 155.600 287.341 162.700 M147.400 158.447 C 173.075 160.813,185.616 173.898,186.670 199.421 C 187.764 225.916,176.136 239.715,149.600 243.414 C 144.646 244.104,113.310 245.070,112.790 244.548 C 112.599 244.357,112.163 233.310,111.822 220.000 C 111.264 198.231,110.805 182.383,110.215 164.500 C 110.104 161.145,110.056 158.362,110.107 158.316 C 110.794 157.698,140.395 157.802,147.400 158.447 M122.679 167.900 C 122.495 168.229,123.313 199.495,123.980 217.616 C 124.211 223.895,124.400 230.356,124.400 231.973 L 124.400 234.913 134.700 234.685 C 161.499 234.090,171.561 227.258,173.647 208.241 C 175.836 188.280,168.370 173.550,154.000 169.480 C 148.166 167.828,123.419 166.579,122.679 167.900 " stroke="none" fill="#fbfbfb" fill-rule="evenodd"></path></g></svg>